#!OML:ASF E:/inclinewalkrobotboard/Project1/Captureday1/Session1/subject1.ASF
:FULLY-SPECIFIED
:DEGREES
113
root 0 0 0 76.3176030802291 -27.399897206454447 -45.45771181815704
lowerback -11.192568228422555 7.86254600280747 9.568713176888988
upperback -20.51915978269364 10.073622522427574 2.9611321389691034
thorax -15.456109351186974 3.9697813830654542 -1.7100881428058754
lowerneck -7.53973397531308 9.771871756968515 5.41093254158394
upperneck 11.712499712020964 11.680591854099376 7.288379361351705
head 4.805012792669622 6.267272564089591 2.077033128826972
rclavicle 6.0918357346193115E-15 -3.3965945185738265E-15
rhumerus 108.19862103349733 -24.786037679192834 -114.65310300975148
rradius 0.8928810926014386
rwrist 69.39626548970574
rhand 13.938052041362102 -12.682780260928164
rfingers 7.125020000000016
rthumb 38.92192784527742 -38.533062029186596
lclavicle -6.072176580431879E-16 1.5142983590408807E-15
lhumerus -0.3604992244369072 24.87903733002733 1.7180368564706612
lradius 9.326679676385357
lwrist -41.46441887957836
lhand 12.122317476888696 36.749290882458006
lfingers 7.125020000000047
lthumb 37.228472143948736 63.83553173330815
rfemur 183.08429231511673 -219.72069657637883 -192.03235327067097
rtibia 67.39374410578176
rfoot -22.811907668276028 -9.962670135584265
rtoes 49.81222228886041
lfemur -109.44288759298249 35.7645474529744 -24.134338024624036
ltibia 67.98706670875862
lfoot -38.31320506905933 35.60094410962269
ltoes 38.969459364702665
114
root 0 0 0 76.31703443582447 -27.402598577334516 -45.45692195055057
lowerback -11.192304176788344 7.862633973803312 9.568167702579546
upperback -20.518780839590402 10.073701210875338 2.9607598776870114
thorax -15.455924745024799 3.969852934472259 -1.710170584008126
lowerneck -7.540455204852249 9.772042193852437 5.411017356517836
upperneck 11.711645837327637 11.680806310248744 7.288550207513621
head 4.804782202104992 6.26739486987159 2.0771166468481455
rclavicle 6.086386197375754E-15 -3.3997543169511505E-15
rhumerus 108.18992554032027 -24.791299687380896 -114.68480217679226
rradius 0.8691221675260223
rwrist 69.42503210681943
rhand 13.936077430101964 -12.683561936862978
rfingers 7.125020000000016
rthumb 38.92033233495867 -38.534816921105644
lclavicle -6.334597819183679E-16 1.506992349478558E-15
lhumerus -0.271820380181099 24.91901957595136 1.7158836772494936
lradius 9.308343257445028
lwrist -41.46657501541184
lhand 12.117805168815702 36.74169235353499
lfingers 7.125020000000047
lthumb 37.22425311629458 63.829699695639036
rfemur 183.07380754713392 -219.70814893863377 -192.02684011516106
rtibia 67.39719614348404
rfoot -22.776043157948166 -9.993592279476134
rtoes 49.836307627176595
lfemur -109.44593295145471 35.76410442347454 -24.139847097510916
ltibia 68.03097471251213
lfoot -38.31332834727401 35.591688286061554
ltoes 38.955827296326056
115
root 0 0 0 76.31608191878465 -27.407840529897115 -45.45548922459425
lowerback -11.192048820620641 7.862696204552909 9.567222617939747
upperback -20.517796311542888 10.073760982283313 2.9599133094139156
thorax -15.455067359752025 3.9699343926074864 -1.7105978399230723
lowerneck -7.542015572073582 9.771906333974664 5.411219308148626
upperneck 11.712188252815398 11.680445644543596 7.288399065920379
head 4.8052135977253965 6.267277625647716 2.077099835695075
rclavicle 6.078433483937278E-15 -3.397626168454675E-15
rhumerus 108.19672735655108 -24.792872080446717 -114.70829509780924
rradius 0.8527668820733503
rwrist 69.45278557547198
rhand 13.937360873241115 -12.686861485669843
rfingers 7.125020000000016
rthumb 38.921736458255566 -38.53836827061839
lclavicle -6.554870341347293E-16 1.5081344849491205E-15
lhumerus -0.22968306012871054 24.9650028747428 1.738744782961298
lradius 9.285699171729643
lwrist -41.473772488952335
lhand 12.103423560020476 36.73091347403059
lfingers 7.125020000000047
lthumb 37.21065479054088 63.82238671145022
rfemur 183.06544474104442 -219.70283348412627 -192.02505283711992
rtibia 67.3947775324234
rfoot -22.77283352456696 -10.004171179824388
rtoes 49.85267049095087
lfemur -109.45170800614852 35.76164328421687 -24.14845188619437
ltibia 68.07483381174112
lfoot -38.31584719465989 35.58530644057779
ltoes 38.941124666445674
116
root 0 0 0 76.32065958923585 -27.384129401117402 -45.46321289864814
lowerback -11.192519481080756 7.862441697513336 9.572001513729056
upperback -20.521240712984792 10.07362497105169 2.9631624333862154
thorax -15.458035694047773 3.969558995427871 -1.7097627362744383
lowerneck -7.536254956145564 9.771492632810059 5.410227136754402
upperneck 11.713031032799531 11.680400642148513 7.2881761518169
head 4.8047836143195095 6.267044759476324 2.0768528962973773
rclavicle 6.147152670227582E-15 -3.3255974800643157E-15
rhumerus 108.29842495070099 -24.802959185070307 -114.71742582826386
rradius 0.904019514511365
rwrist 69.41849738036957
rhand 13.895933945315903 -12.661307916313762
rfingers 7.125020000000016
rthumb 38.881802310783556 -38.51873346139668
lclavicle -5.535712987673461E-16 1.5859966141750418E-15
lhumerus -0.5194195830142565 24.812313104530066 1.7242347078861755
lradius 9.359965733679324
lwrist -41.46509118834767
lhand 12.133517167822784 36.76287676459898
lfingers 7.125020000000047
lthumb 37.23905077336308 63.845974262692955
rfemur 183.0760188333484 -219.74745438670027 -192.0488316647515
rtibia 67.34960857937917
rfoot -22.98814806907611 -9.875334479214056
rtoes 49.79453959700761
lfemur -109.46034618034508 35.771203836226924 -24.138809983853424
ltibia 67.94926074214708
lfoot -38.279552228672074 35.616583229784126
ltoes 38.97838375142003
117
root 0 0 0 76.3182001228139 -27.397117747317978 -45.45920929708499
lowerback -11.192030132550855 7.862625509621719 9.569491933373602
upperback -20.519515555231518 10.073732680221338 2.9614887955432123
thorax -15.456752054551579 3.9697708053571272 -1.710127148667425
lowerneck -7.539306757566761 9.77204746087806 5.41079338756661
upperneck 11.711330116117804 11.680949938289034 7.288537049337649
head 4.804531412039397 6.267414432704118 2.0770783378680733
rclavicle 6.094003802739907E-15 -3.4035806638860273E-15
rhumerus 108.32550256101598 -24.820348488429254 -114.77241190997046
rradius 0.880320256251931
rwrist 69.4452118838417
rhand 13.882171234214589 -12.658473558171353
rfingers 7.125020000000017
rthumb 38.86922670499942 -38.51960882181458
lclavicle -6.104600956702345E-16 1.511086469849933E-15
lhumerus -0.3277112970549201 24.863138062981914 1.6953042871106163
lradius 9.33482007078294
lwrist -41.45645861451024
lhand 12.131764054954925 36.75646566104042
lfingers 7.125020000000047
lthumb 37.2374332804712 63.840879483218394
rfemur 183.0850017094221 -219.735958821128 -192.05005080760537
rtibia 67.3725820793231
rfoot -22.878065782801524 -9.924405855059163
rtoes 49.83195517278003
lfemur -109.45664588674938 35.76824292653432 -24.134016203171747
ltibia 67.99894939011347
lfoot -38.29744935816063 35.59944279239916
ltoes 38.966118220991554
118
root 0 0 0 76.3174610108437 -27.400516464419038 -45.45821036202927
lowerback -11.191658180441385 7.862717857768592 9.568798072300792
upperback -20.518965424738575 10.07381337545768 2.9609739658162293
thorax -15.456449751504138 3.969850634560344 -1.710289655086914
lowerneck -7.5402853001250065 9.77219284242651 5.410911176937663
upperneck 11.71057105882761 11.681105826452027 7.28865969676698
head 4.804375245639154 6.267515897287715 2.077151006976938
rclavicle 6.08739832516003E-15 -3.406491404465435E-15
rhumerus 108.31690497280276 -24.826201679534982 -114.79994128314638
rradius 0.8573605594232951
rwrist 69.473036940658
rhand 13.88144439564087 -12.660073187767773
rfingers 7.125020000000017
rthumb 38.86881234872901 -38.521980768294455
lclavicle -6.378905328939627E-16 1.5037684647025908E-15
lhumerus -0.23869198365077793 24.90855541472496 1.6974349383177767
lradius 9.3140088036718
lwrist -41.46001941119471
lhand 12.12420718355975 36.747136508090634
lfingers 7.125020000000047
lthumb 37.2303187505584 63.83390024020014
rfemur 183.07586149277412 -219.7210907646047 -192.04210416562728
rtibia 67.380499950179
rfoot -22.82718863671186 -9.96192464481589
rtoes 49.852914001057705
lfemur -109.45575709542328 35.766881303507446 -24.139022394697847
ltibia 68.0400639168165
lfoot -38.30262661844272 35.59007245518411
ltoes 38.952929676141906
